0
SECTION
2
HEADER
9
$INSUNITS
70
4
9
$ACADVER
1
AC1014
9
$HANDSEED
5
FFFF
0
ENDSEC
0
SECTION
2
TABLES
0
TABLE
2
VPORT
5
8
100
AcDbSymbolTable
0
ENDTAB
0
TABLE
2
LTYPE
5
5
100
AcDbSymbolTable
0
LTYPE
5
14
100
AcDbSymbolTableRecord
100
AcDbLinetypeTableRecord
2
BYBLOCK
70
0
0
LTYPE
5
15
100
AcDbSymbolTableRecord
100
AcDbLinetypeTableRecord
2
BYLAYER
70
0
0
ENDTAB
0
TABLE
2
LAYER
5
2
100
AcDbSymbolTable
70
2
0
LAYER
5
50
100
AcDbSymbolTableRecord
100
AcDbLayerTableRecord
2
0
70
0
6
CONTINUOUS
0
ENDTAB
0
TABLE
2
STYLE
5
3
100
AcDbSymbolTable
70
1
0
STYLE
5
11
100
AcDbSymbolTableRecord
100
AcDbTextStyleTableRecord
2
STANDARD
70
0
0
ENDTAB
0
TABLE
2
VIEW
5
6
100
AcDbSymbolTable
70
0
0
ENDTAB
0
TABLE
2
UCS
5
7
100
AcDbSymbolTable
70
0
0
ENDTAB
0
TABLE
2
APPID
5
9
100
AcDbSymbolTable
70
2
0
APPID
5
12
100
AcDbSymbolTableRecord
100
AcDbRegAppTableRecord
2
ACAD
70
0
0
ENDTAB
0
TABLE
2
DIMSTYLE
5
A
100
AcDbSymbolTable
70
1
0
ENDTAB
0
TABLE
2
BLOCK_RECORD
5
1
100
AcDbSymbolTable
70
1
0
BLOCK_RECORD
5
1F
100
AcDbSymbolTableRecord
100
AcDbBlockTableRecord
2
*MODEL_SPACE
0
BLOCK_RECORD
5
1B
100
AcDbSymbolTableRecord
100
AcDbBlockTableRecord
2
*PAPER_SPACE
0
ENDTAB
0
ENDSEC
0
SECTION
2
BLOCKS
0
BLOCK
5
20
100
AcDbEntity
100
AcDbBlockBegin
2
*MODEL_SPACE
0
ENDBLK
5
21
100
AcDbEntity
100
AcDbBlockEnd
0
BLOCK
5
1C
100
AcDbEntity
100
AcDbBlockBegin
2
*PAPER_SPACE
0
ENDBLK
5
1D
100
AcDbEntity
100
AcDbBlockEnd
0
ENDSEC
0
SECTION
2
ENTITIES
0
CIRCLE
5
100
100
AcDbEntity
8
0
100
AcDbCircle
10
-152.60351181030273
20
13.602268695831299
30
0
40
1.7500000000000002
210
0
220
0
230
1
0
CIRCLE
5
101
100
AcDbEntity
8
0
100
AcDbCircle
10
-153.13419342041016
20
-13.137571811676025
30
0
40
1.7500000000000002
210
0
220
0
230
1
0
CIRCLE
5
102
100
AcDbEntity
8
0
100
AcDbCircle
10
6.1925392759116011
20
-73.318048774555706
30
0
40
1.7500000000000002
210
0
220
0
230
1
0
CIRCLE
5
103
100
AcDbEntity
8
0
100
AcDbCircle
10
6.1925392759116153
20
-91.718048774555641
30
0
40
1.7500000000000002
210
0
220
0
230
1
0
CIRCLE
5
104
100
AcDbEntity
8
0
100
AcDbCircle
10
-6.8074607240883793
20
-73.318048774555706
30
0
40
1.7500000000000002
210
0
220
0
230
1
0
CIRCLE
5
105
100
AcDbEntity
8
0
100
AcDbCircle
10
-6.8074607240883651
20
-91.718048774555641
30
0
40
1.7500000000000002
210
0
220
0
230
1
0
CIRCLE
5
106
100
AcDbEntity
8
0
100
AcDbCircle
10
-6.8072794558080698
20
91.786699648034826
30
0
40
1.7500000000000002
210
0
220
0
230
1
0
CIRCLE
5
107
100
AcDbEntity
8
0
100
AcDbCircle
10
-6.9044468459633013
20
73.386956212370066
30
0
40
1.7500000000000002
210
0
220
0
230
1
0
CIRCLE
5
108
100
AcDbEntity
8
0
100
AcDbCircle
10
6.095371885756391
20
73.318305338890838
30
0
40
1.7500000000000002
210
0
220
0
230
1
0
CIRCLE
5
109
100
AcDbEntity
8
0
100
AcDbCircle
10
6.1925392759116216
20
91.718048774555584
30
0
40
1.7500000000000002
210
0
220
0
230
1
0
CIRCLE
5
110
100
AcDbEntity
8
0
100
AcDbCircle
10
8.8773031362859491
20
23.313108414539421
30
0
40
1.7500000000000002
210
0
220
0
230
1
0
CIRCLE
5
111
100
AcDbEntity
8
0
100
AcDbCircle
10
59.687303136285948
20
-20.186891585460561
30
0
40
1.7500000000000002
210
0
220
0
230
1
0
CIRCLE
5
112
100
AcDbEntity
8
0
100
AcDbCircle
10
59.687303136285948
20
7.9831084145394691
30
0
40
1.7500000000000002
210
0
220
0
230
1
0
CIRCLE
5
113
100
AcDbEntity
8
0
100
AcDbCircle
10
7.6273031362859456
20
-25.006891585460529
30
0
40
1.7500000000000002
210
0
220
0
230
1
0
CIRCLE
5
114
100
AcDbEntity
8
0
100
AcDbCircle
10
117.50000000000001
20
-50.999999999999929
30
0
40
1.7499999999999893
210
0
220
0
230
1
0
CIRCLE
5
115
100
AcDbEntity
8
0
100
AcDbCircle
10
87.499999999999972
20
-24.999999999999932
30
0
40
1.7500000000000071
210
0
220
0
230
1
0
CIRCLE
5
116
100
AcDbEntity
8
0
100
AcDbCircle
10
117.50000000000001
20
-24.999999999999925
30
0
40
1.7499999999999893
210
0
220
0
230
1
0
CIRCLE
5
117
100
AcDbEntity
8
0
100
AcDbCircle
10
-87.499999999999943
20
51.000000000000007
30
0
40
1.7499999999999893
210
0
220
0
230
1
0
CIRCLE
5
118
100
AcDbEntity
8
0
100
AcDbCircle
10
-117.49999999999994
20
51.000000000000014
30
0
40
1.7499999999999893
210
0
220
0
230
1
0
CIRCLE
5
119
100
AcDbEntity
8
0
100
AcDbCircle
10
-87.499999999999972
20
25.000000000000021
30
0
40
1.7500000000000071
210
0
220
0
230
1
0
CIRCLE
5
120
100
AcDbEntity
8
0
100
AcDbCircle
10
-117.50000000000003
20
25.000000000000021
30
0
40
1.7500000000000071
210
0
220
0
230
1
0
CIRCLE
5
121
100
AcDbEntity
8
0
100
AcDbCircle
10
-87.5
20
-50.999999999999936
30
0
40
1.7499999999999893
210
0
220
0
230
1
0
CIRCLE
5
122
100
AcDbEntity
8
0
100
AcDbCircle
10
-87.499999999999972
20
-24.999999999999932
30
0
40
1.7500000000000071
210
0
220
0
230
1
0
CIRCLE
5
123
100
AcDbEntity
8
0
100
AcDbCircle
10
-117.50000000000001
20
-50.999999999999929
30
0
40
1.7499999999999893
210
0
220
0
230
1
0
CIRCLE
5
124
100
AcDbEntity
8
0
100
AcDbCircle
10
-117.50000000000001
20
-24.999999999999925
30
0
40
1.7499999999999893
210
0
220
0
230
1
0
CIRCLE
5
125
100
AcDbEntity
8
0
100
AcDbCircle
10
-134.97595264191645
20
-18.749999999999947
30
0
40
1.7500000000000071
210
0
220
0
230
1
0
CIRCLE
5
126
100
AcDbEntity
8
0
100
AcDbCircle
10
117.49999999999994
20
14.999999999999979
30
0
40
1.7500000000000071
210
0
220
0
230
1
0
CIRCLE
5
127
100
AcDbEntity
8
0
100
AcDbCircle
10
87.500000000000057
20
14.999999999999991
30
0
40
1.7500000000000071
210
0
220
0
230
1
0
CIRCLE
5
128
100
AcDbEntity
8
0
100
AcDbCircle
10
87.500000000000057
20
-14.999999999999956
30
0
40
1.7500000000000071
210
0
220
0
230
1
0
CIRCLE
5
129
100
AcDbEntity
8
0
100
AcDbCircle
10
117.49999999999994
20
-14.999999999999956
30
0
40
1.7500000000000071
210
0
220
0
230
1
0
CIRCLE
5
130
100
AcDbEntity
8
0
100
AcDbCircle
10
117.50000000000001
20
33.999999999999943
30
0
40
1.7499999999999893
210
0
220
0
230
1
0
CIRCLE
5
131
100
AcDbEntity
8
0
100
AcDbCircle
10
117.50000000000006
20
59.999999999999943
30
0
40
1.7499999999999893
210
0
220
0
230
1
0
CIRCLE
5
132
100
AcDbEntity
8
0
100
AcDbCircle
10
87.499999999999986
20
33.999999999999964
30
0
40
1.7499999999999893
210
0
220
0
230
1
0
CIRCLE
5
133
100
AcDbEntity
8
0
100
AcDbCircle
10
87.500000000000014
20
59.999999999999972
30
0
40
1.7499999999999893
210
0
220
0
230
1
0
CIRCLE
5
134
100
AcDbEntity
8
0
100
AcDbCircle
10
117.50000000000001
20
-33.999999999999929
30
0
40
1.7499999999999893
210
0
220
0
230
1
0
CIRCLE
5
135
100
AcDbEntity
8
0
100
AcDbCircle
10
87.499999999999972
20
-33.999999999999936
30
0
40
1.7500000000000071
210
0
220
0
230
1
0
CIRCLE
5
136
100
AcDbEntity
8
0
100
AcDbCircle
10
117.50000000000001
20
-59.999999999999929
30
0
40
1.7499999999999893
210
0
220
0
230
1
0
CIRCLE
5
137
100
AcDbEntity
8
0
100
AcDbCircle
10
87.499999999999972
20
-59.999999999999936
30
0
40
1.7499999999999893
210
0
220
0
230
1
0
CIRCLE
5
138
100
AcDbEntity
8
0
100
AcDbCircle
10
-102.5
20
5.1990602358404065e-14
30
0
40
12.5
210
0
220
0
230
1
0
CIRCLE
5
139
100
AcDbEntity
8
0
100
AcDbCircle
10
152.49999999999994
20
-97.500000000000028
30
0
40
1.7500000000000071
210
0
220
0
230
1
0
CIRCLE
5
140
100
AcDbEntity
8
0
100
AcDbCircle
10
52.499999999999943
20
-97.5
30
0
40
1.7500000000000071
210
0
220
0
230
1
0
CIRCLE
5
141
100
AcDbEntity
8
0
100
AcDbCircle
10
-52.499999999999993
20
-97.499999999999943
30
0
40
1.7500000000000071
210
0
220
0
230
1
0
CIRCLE
5
142
100
AcDbEntity
8
0
100
AcDbCircle
10
-152.49999999999997
20
-97.499999999999915
30
0
40
1.7500000000000071
210
0
220
0
230
1
0
CIRCLE
5
143
100
AcDbEntity
8
0
100
AcDbCircle
10
52.499999999999964
20
97.500000000000028
30
0
40
1.7500000000000071
210
0
220
0
230
1
0
CIRCLE
5
144
100
AcDbEntity
8
0
100
AcDbCircle
10
152.49999999999997
20
97.500000000000028
30
0
40
1.7500000000000071
210
0
220
0
230
1
0
CIRCLE
5
145
100
AcDbEntity
8
0
100
AcDbCircle
10
-52.499999999999964
20
97.500000000000014
30
0
40
1.7500000000000071
210
0
220
0
230
1
0
CIRCLE
5
146
100
AcDbEntity
8
0
100
AcDbCircle
10
-152.49999999999997
20
97.500000000000014
30
0
40
1.7500000000000071
210
0
220
0
230
1
0
CIRCLE
5
147
100
AcDbEntity
8
0
100
AcDbCircle
10
87.499999999999929
20
51.000000000000007
30
0
40
1.7499999999999893
210
0
220
0
230
1
0
LWPOLYLINE
5
148
100
AcDbEntity
8
0
100
AcDbPolyline
90
4
70
1
43
0.0
10
-50
20
-29.999999999999964
10
-25
20
-29.999999999999964
10
-25
20
30.000000000000036
10
-50
20
30.000000000000036
0
CIRCLE
5
149
100
AcDbEntity
8
0
100
AcDbCircle
10
117.49999999999993
20
51.000000000000014
30
0
40
1.7499999999999893
210
0
220
0
230
1
0
CIRCLE
5
150
100
AcDbEntity
8
0
100
AcDbCircle
10
87.499999999999929
20
25.000000000000021
30
0
40
1.7500000000000071
210
0
220
0
230
1
0
CIRCLE
5
151
100
AcDbEntity
8
0
100
AcDbCircle
10
117.5
20
25.000000000000021
30
0
40
1.7500000000000071
210
0
220
0
230
1
0
CIRCLE
5
152
100
AcDbEntity
8
0
100
AcDbCircle
10
87.499999999999972
20
-50.999999999999936
30
0
40
1.7499999999999893
210
0
220
0
230
1
0
CIRCLE
5
153
100
AcDbEntity
8
0
100
AcDbCircle
10
-70.02404735808355
20
-18.749999999999964
30
0
40
1.749999999999998
210
0
220
0
230
1
0
LWPOLYLINE
5
154
100
AcDbEntity
8
0
100
AcDbPolyline
90
4
70
1
43
0.0
10
20.000000000000018
20
40.000000000000057
10
59.999999999999986
20
40.000000000000036
10
60.000000000000014
20
50.000000000000036
10
20.000000000000018
20
50.000000000000057
0
CIRCLE
5
155
100
AcDbEntity
8
0
100
AcDbCircle
10
-70.024047358083536
20
18.750000000000036
30
0
40
1.749999999999998
210
0
220
0
230
1
0
CIRCLE
5
156
100
AcDbEntity
8
0
100
AcDbCircle
10
172.99999999999997
20
6.9396848247208711e-14
30
0
40
13.500000000000014
210
0
220
0
230
1
0
CIRCLE
5
157
100
AcDbEntity
8
0
100
AcDbCircle
10
-102.5
20
-37.49999999999995
30
0
40
1.7500000000000071
210
0
220
0
230
1
0
CIRCLE
5
158
100
AcDbEntity
8
0
100
AcDbCircle
10
-172.99999999999997
20
6.9396848247208711e-14
30
0
40
13.499999999999996
210
0
220
0
230
1
0
CIRCLE
5
159
100
AcDbEntity
8
0
100
AcDbCircle
10
-102.5
20
37.500000000000057
30
0
40
1.7500000000000071
210
0
220
0
230
1
0
LWPOLYLINE
5
160
100
AcDbEntity
8
0
100
AcDbPolyline
90
4
70
1
43
0.0
10
20
20
-40
10
20
20
-50
10
60
20
-50
10
60
20
-40
0
CIRCLE
5
161
100
AcDbEntity
8
0
100
AcDbCircle
10
-134.97595264191645
20
18.750000000000071
30
0
40
1.7500000000000071
210
0
220
0
230
1
0
LWPOLYLINE
5
162
100
AcDbEntity
8
0
100
AcDbPolyline
90
20
70
1
43
0.0
10
64.999999999999943
20
-84.999999999999972
10
64.999999999999943
20
-109.99999999999994
10
-65
20
-109.99999999999991
10
-65
20
-84.999999999999929
10
-140
20
-84.999999999999929
10
-140
20
-109.99999999999993
10
-165
20
-109.99999999999986
42
-0.49224606388634062
10
-165
20
109.99999999999987
10
-139.99999999999997
20
110.00000000000001
10
-139.99999999999997
20
85.000000000000014
10
-64.999999999999972
20
85.000000000000014
10
-64.999999999999972
20
110.00000000000001
10
64.999999999999972
20
110.00000000000001
10
64.999999999999972
20
85.000000000000014
10
139.99999999999997
20
85.000000000000014
10
139.99999999999997
20
110.00000000000001
10
164.99999999999997
20
109.99999999999991
42
-0.49224606388634068
10
165
20
-109.99999999999986
10
139.99999999999991
20
-110
10
139.99999999999994
20
-85
0
ENDSEC
0
SECTION
2
OBJECTS
0
DICTIONARY
5
C
100
AcDbDictionary
3
ACAD_GROUP
350
D
3
ACAD_MLINESTYLE
350
17
0
DICTIONARY
5
D
100
AcDbDictionary
0
DICTIONARY
5
1A
330
C
100
AcDbDictionary
0
DICTIONARY
5
17
100
AcDbDictionary
0
ENDSEC
0
EOF
